<?xml version="1.0" encoding="UTF-8" standalone="no"?>
<svg
   xmlns:dc="http://purl.org/dc/elements/1.1/"
   xmlns:cc="http://creativecommons.org/ns#"
   xmlns:rdf="http://www.w3.org/1999/02/22-rdf-syntax-ns#"
   xmlns:svg="http://www.w3.org/2000/svg"
   xmlns="http://www.w3.org/2000/svg"
   viewBox="0 0 75.590555 75.590549"
   height="20mm"
   width="20mm"
   xml:space="preserve"
   id="svg5232"
   version="1.1"><metadata
     id="metadata5238"><rdf:RDF><cc:Work
         rdf:about=""><dc:format>image/svg+xml</dc:format><dc:type
           rdf:resource="http://purl.org/dc/dcmitype/StillImage" /><dc:title></dc:title></cc:Work></rdf:RDF></metadata><defs
     id="defs5236" /><g
     transform="matrix(1.3333333,0,0,-1.3333333,0,75.59049)"
     id="g5240"><path
       d="M 53.726416,56.692869 H 3.2913457 c -1.7284389,0 -3.12890569,-1.400466 -3.12890569,-3.128905 V 3.1288929 c 0,-1.7280141 1.40046679,-3.128905658789 3.12890569,-3.128905658789 H 30.44379 V 21.95437 h -7.388084 v 8.556165 h 7.388084 v 6.309854 c 0,7.322659 4.472443,11.309943 11.004697,11.309943 3.128907,0 5.818321,-0.233022 6.601927,-0.337108 v -7.652542 l -4.530434,-0.0021 c -3.552678,0 -4.240484,-1.688082 -4.240484,-4.165289 v -5.462735 h 8.472685 L 46.648885,21.95437 H 39.279496 V -1.2758789e-5 h 14.44692 c 1.728014,0 3.128905,1.400891558789 3.128905,3.128905658789 V 53.563964 c 0,1.728439 -1.400891,3.128905 -3.128905,3.128905"
       style="fill:#6aba9c;fill-opacity:1;fill-rule:nonzero;stroke:none;stroke-width:0.02124172"
       id="path5280" /></g></svg>