<?xml version="1.0" encoding="UTF-8" standalone="no"?>
<!-- Created with Inkscape (http://www.inkscape.org/) -->

<svg
   xmlns:dc="http://purl.org/dc/elements/1.1/"
   xmlns:cc="http://creativecommons.org/ns#"
   xmlns:rdf="http://www.w3.org/1999/02/22-rdf-syntax-ns#"
   xmlns:svg="http://www.w3.org/2000/svg"
   xmlns="http://www.w3.org/2000/svg"
   xmlns:sodipodi="http://sodipodi.sourceforge.net/DTD/sodipodi-0.dtd"
   xmlns:inkscape="http://www.inkscape.org/namespaces/inkscape"
   width="128.49336mm"
   height="44.360661mm"
   viewBox="0 0 128.49336 44.360661"
   version="1.1"
   id="svg2004"
   inkscape:version="0.92.2 5c3e80d, 2017-08-06"
   sodipodi:docname="nowelogora.svg">
  <defs
     id="defs1998" />
  <sodipodi:namedview
     id="base"
     pagecolor="#ffffff"
     bordercolor="#666666"
     borderopacity="1.0"
     inkscape:pageopacity="0.0"
     inkscape:pageshadow="2"
     inkscape:zoom="1.4"
     inkscape:cx="166.82068"
     inkscape:cy="74.383497"
     inkscape:document-units="mm"
     inkscape:current-layer="layer1"
     showgrid="false"
     inkscape:snap-page="true"
     inkscape:snap-bbox="true"
     inkscape:bbox-nodes="true"
     inkscape:bbox-paths="true"
     inkscape:window-width="1916"
     inkscape:window-height="1033"
     inkscape:window-x="1080"
     inkscape:window-y="862"
     inkscape:window-maximized="0" />
  <metadata
     id="metadata2001">
    <rdf:RDF>
      <cc:Work
         rdf:about="">
        <dc:format>image/svg+xml</dc:format>
        <dc:type
           rdf:resource="http://purl.org/dc/dcmitype/StillImage" />
        <dc:title></dc:title>
      </cc:Work>
    </rdf:RDF>
  </metadata>
  <g
     inkscape:label="Layer 1"
     inkscape:groupmode="layer"
     id="layer1"
     transform="translate(7.0716337e-7,-252.63934)">
    <g
       id="g2731">
      <g
         transform="translate(180.07868,-1018.0528)"
         id="text20-7-2-8-5-5-95-2-6-1"
         style="font-style:normal;font-variant:normal;font-weight:bold;font-stretch:normal;font-size:15.34583378px;line-height:120.00000477%;font-family:'Radikal WUT';-inkscape-font-specification:'Radikal WUT, Bold';font-variant-ligatures:normal;font-variant-caps:normal;font-variant-numeric:normal;font-feature-settings:normal;text-align:start;letter-spacing:0px;word-spacing:0px;writing-mode:lr-tb;text-anchor:start;display:inline;fill:#6aba9c;fill-opacity:1;stroke:none;stroke-width:0.49716496px;stroke-linecap:butt;stroke-linejoin:miter;stroke-opacity:1"
         aria-label="Radio Aktywne">
        <path
           inkscape:connector-curvature="0"
           id="path1728"
           style="font-style:normal;font-variant:normal;font-weight:bold;font-stretch:normal;font-size:15.34583378px;line-height:120.00000477%;font-family:'Radikal WUT';-inkscape-font-specification:'Radikal WUT, Bold';font-variant-ligatures:normal;font-variant-caps:normal;font-variant-numeric:normal;font-feature-settings:normal;text-align:start;writing-mode:lr-tb;text-anchor:start;fill:#6aba9c;fill-opacity:1;stroke-width:0.49716496px"
           d="m -127.53089,1282.3828 h 2.34791 v -11.2792 h -2.34791 z m 6.61406,-4.4656 c 1.08955,-0.5985 1.82615,-1.6727 1.82615,-3.1613 0,-2.3325 -1.8415,-3.6523 -4.00526,-3.6523 h -0.16881 v 2.0257 h 0.046 c 0.99748,0 1.74943,0.5831 1.74943,1.6266 0,1.0589 -0.72126,1.6267 -1.76477,1.6267 h -0.0307 v 2.0563 l 2.01031,3.9439 h 2.70086 z" />
        <path
           inkscape:connector-curvature="0"
           id="path1730"
           style="font-style:normal;font-variant:normal;font-weight:bold;font-stretch:normal;font-size:15.34583378px;line-height:120.00000477%;font-family:'Radikal WUT';-inkscape-font-specification:'Radikal WUT, Bold';font-variant-ligatures:normal;font-variant-caps:normal;font-variant-numeric:normal;font-feature-settings:normal;text-align:start;writing-mode:lr-tb;text-anchor:start;fill:#6aba9c;fill-opacity:1;stroke-width:0.49716496px"
           d="m -114.5627,1274.449 c -2.05634,0 -3.42212,1.7187 -3.42212,4.0513 0,2.3326 1.36578,4.036 3.42212,4.036 1.08955,0 1.82615,-0.4604 2.22515,-1.0129 l 0.10742,0.8594 h 2.04099 v -7.7803 h -2.04099 l -0.10742,0.8747 c -0.399,-0.5678 -1.1356,-1.0282 -2.22515,-1.0282 z m 0.55245,1.9796 c 0.76729,0 1.21232,0.4144 1.54993,0.9668 v 2.1945 c -0.33761,0.5524 -0.78264,0.9668 -1.54993,0.9668 -0.99748,0 -1.6727,-0.7827 -1.6727,-2.0564 0,-1.2737 0.67522,-2.0717 1.6727,-2.0717 z" />
        <path
           inkscape:connector-curvature="0"
           id="path1732"
           style="font-style:normal;font-variant:normal;font-weight:bold;font-stretch:normal;font-size:15.34583378px;line-height:120.00000477%;font-family:'Radikal WUT';-inkscape-font-specification:'Radikal WUT, Bold';font-variant-ligatures:normal;font-variant-caps:normal;font-variant-numeric:normal;font-feature-settings:normal;text-align:start;writing-mode:lr-tb;text-anchor:start;fill:#6aba9c;fill-opacity:1;stroke-width:0.49716496px"
           d="m -100.89556,1270.72 h -2.25583 v 4.5884 c -0.38365,-0.4297 -1.05887,-0.8594 -2.16377,-0.8594 -2.05634,0 -3.46816,1.7187 -3.46816,4.0513 0,2.3326 1.41182,4.036 3.46816,4.036 1.12025,0 1.87219,-0.4604 2.27119,-1.0129 l 0.12276,0.8594 h 2.02565 z m -3.8518,5.7086 c 0.78264,0 1.25836,0.4144 1.59597,0.9822 v 2.1791 c -0.33761,0.5524 -0.81333,0.9668 -1.59597,0.9668 -1.02817,0 -1.73408,-0.7827 -1.73408,-2.0564 0,-1.2737 0.70591,-2.0717 1.73408,-2.0717 z" />
        <path
           inkscape:connector-curvature="0"
           id="path1734"
           style="font-style:normal;font-variant:normal;font-weight:bold;font-stretch:normal;font-size:15.34583378px;line-height:120.00000477%;font-family:'Radikal WUT';-inkscape-font-specification:'Radikal WUT, Bold';font-variant-ligatures:normal;font-variant-caps:normal;font-variant-numeric:normal;font-feature-settings:normal;text-align:start;writing-mode:lr-tb;text-anchor:start;fill:#6aba9c;fill-opacity:1;stroke-width:0.49716496px"
           d="m -97.835261,1270.8121 c -0.782638,0 -1.335088,0.5677 -1.335088,1.335 0,0.7673 0.55245,1.3351 1.335088,1.3351 0.767291,0 1.319741,-0.5678 1.319741,-1.3351 0,-0.7673 -0.55245,-1.335 -1.319741,-1.335 z m 1.120246,3.7904 h -2.271184 v 7.7803 h 2.271184 z" />
        <path
           inkscape:connector-curvature="0"
           id="path1736"
           style="font-style:normal;font-variant:normal;font-weight:bold;font-stretch:normal;font-size:15.34583378px;line-height:120.00000477%;font-family:'Radikal WUT';-inkscape-font-specification:'Radikal WUT, Bold';font-variant-ligatures:normal;font-variant-caps:normal;font-variant-numeric:normal;font-feature-settings:normal;text-align:start;writing-mode:lr-tb;text-anchor:start;fill:#6aba9c;fill-opacity:1;stroke-width:0.49716496px"
           d="m -91.228401,1274.449 c -2.363259,0 -4.097338,1.7341 -4.097338,4.0667 0,2.3325 1.734079,4.0206 4.097338,4.0206 2.363258,0 4.112683,-1.6881 4.112683,-4.0206 0,-2.3326 -1.749425,-4.0667 -4.112683,-4.0667 z m 0,1.9796 c 1.074208,0 1.826154,0.8594 1.826154,2.0871 0,1.1969 -0.751946,2.041 -1.826154,2.041 -1.058863,0 -1.795463,-0.8441 -1.795463,-2.041 0,-1.2277 0.7366,-2.0871 1.795463,-2.0871 z" />
        <path
           inkscape:connector-curvature="0"
           id="path1738"
           style="font-style:normal;font-variant:normal;font-weight:bold;font-stretch:normal;font-size:15.34583378px;line-height:120.00000477%;font-family:'Radikal WUT';-inkscape-font-specification:'Radikal WUT, Bold';font-variant-ligatures:normal;font-variant-caps:normal;font-variant-numeric:normal;font-feature-settings:normal;text-align:start;writing-mode:lr-tb;text-anchor:start;fill:#6aba9c;fill-opacity:1;stroke-width:0.49716496px"
           d="m -124.1855,1291.4215 3.91319,9.3763 h 2.59345 l -5.44777,-11.4787 h -0.0614 z m 0.98214,7.3353 -2.08704,-5.0027 -3.36073,7.0437 h 2.60879 l 0.85936,-2.041 z" />
        <path
           inkscape:connector-curvature="0"
           id="path1740"
           style="font-style:normal;font-variant:normal;font-weight:bold;font-stretch:normal;font-size:15.34583378px;line-height:120.00000477%;font-family:'Radikal WUT';-inkscape-font-specification:'Radikal WUT, Bold';font-variant-ligatures:normal;font-variant-caps:normal;font-variant-numeric:normal;font-feature-settings:normal;text-align:start;writing-mode:lr-tb;text-anchor:start;fill:#6aba9c;fill-opacity:1;stroke-width:0.49716496px"
           d="m -114.368,1289.135 h -2.27118 v 11.6628 h 1.79546 l 1.90288,-2.6241 1.51924,2.6241 h 2.5781 l -2.59345,-4.573 2.36326,-3.2073 h -2.5781 l -2.71621,4.128 z" />
        <path
           inkscape:connector-curvature="0"
           id="path1742"
           style="font-style:normal;font-variant:normal;font-weight:bold;font-stretch:normal;font-size:15.34583378px;line-height:120.00000477%;font-family:'Radikal WUT';-inkscape-font-specification:'Radikal WUT, Bold';font-variant-ligatures:normal;font-variant-caps:normal;font-variant-numeric:normal;font-feature-settings:normal;text-align:start;writing-mode:lr-tb;text-anchor:start;fill:#6aba9c;fill-opacity:1;stroke-width:0.49716496px"
           d="m -104.97299,1290.4394 h -2.27119 v 2.5781 h -1.39647 v 1.9182 h 1.39647 v 2.9618 c 0,1.9642 1.19698,3.0538 3.11521,3.0538 0.79798,0 1.38112,-0.2149 1.78011,-0.4757 l -0.56779,-1.7955 c -0.23019,0.1074 -0.53711,0.2455 -1.01283,0.2455 -0.62918,0 -1.04351,-0.399 -1.04351,-1.0588 v -2.9311 h 2.22514 v -1.9182 h -2.22514 z" />
        <path
           inkscape:connector-curvature="0"
           id="path1744"
           style="font-style:normal;font-variant:normal;font-weight:bold;font-stretch:normal;font-size:15.34583378px;line-height:120.00000477%;font-family:'Radikal WUT';-inkscape-font-specification:'Radikal WUT, Bold';font-variant-ligatures:normal;font-variant-caps:normal;font-variant-numeric:normal;font-feature-settings:normal;text-align:start;writing-mode:lr-tb;text-anchor:start;fill:#6aba9c;fill-opacity:1;stroke-width:0.49716496px"
           d="m -93.635057,1293.0175 h -2.486026 l -1.8415,3.8978 -1.795462,-3.8978 h -2.486025 l 3.084512,5.816 -3.115202,5.4939 h 2.593444 z" />
        <path
           inkscape:connector-curvature="0"
           id="path1746"
           style="font-style:normal;font-variant:normal;font-weight:bold;font-stretch:normal;font-size:15.34583378px;line-height:120.00000477%;font-family:'Radikal WUT';-inkscape-font-specification:'Radikal WUT, Bold';font-variant-ligatures:normal;font-variant-caps:normal;font-variant-numeric:normal;font-feature-settings:normal;text-align:start;writing-mode:lr-tb;text-anchor:start;fill:#6aba9c;fill-opacity:1;stroke-width:0.49716496px"
           d="m -81.889262,1293.0175 h -2.486025 l -1.488546,3.7597 -1.826154,-3.7597 h -0.06138 l -1.8415,3.7597 -1.473201,-3.7597 h -2.486025 l 3.729038,7.9338 h 0.06138 l 2.040996,-3.8211 2.040996,3.8211 h 0.06138 z" />
        <path
           inkscape:connector-curvature="0"
           id="path1748"
           style="font-style:normal;font-variant:normal;font-weight:bold;font-stretch:normal;font-size:15.34583378px;line-height:120.00000477%;font-family:'Radikal WUT';-inkscape-font-specification:'Radikal WUT, Bold';font-variant-ligatures:normal;font-variant-caps:normal;font-variant-numeric:normal;font-feature-settings:normal;text-align:start;writing-mode:lr-tb;text-anchor:start;fill:#6aba9c;fill-opacity:1;stroke-width:0.49716496px"
           d="m -76.570009,1292.864 c -1.058863,0 -1.810809,0.445 -2.2098,1.0128 l -0.107421,-0.8593 h -2.02565 v 7.7803 h 2.271183 v -4.8953 c 0.291571,-0.4604 0.751946,-0.9054 1.457854,-0.9054 0.782638,0 1.258359,0.5831 1.258359,1.4425 v 4.3582 h 2.271183 v -4.481 c 0,-2.1023 -1.012825,-3.4528 -2.915708,-3.4528 z" />
        <path
           inkscape:connector-curvature="0"
           id="path1750"
           style="font-style:normal;font-variant:normal;font-weight:bold;font-stretch:normal;font-size:15.34583378px;line-height:120.00000477%;font-family:'Radikal WUT';-inkscape-font-specification:'Radikal WUT, Bold';font-variant-ligatures:normal;font-variant-caps:normal;font-variant-numeric:normal;font-feature-settings:normal;text-align:start;writing-mode:lr-tb;text-anchor:start;fill:#6aba9c;fill-opacity:1;stroke-width:0.49716496px"
           d="m -68.408424,1292.864 c -2.332567,0 -3.928534,1.7341 -3.928534,4.0667 0,2.3325 1.626659,4.0206 4.066646,4.0206 1.457854,0 2.562754,-0.5218 3.330046,-1.5039 l -1.519237,-1.151 c -0.337609,0.4451 -0.951442,0.7827 -1.73408,0.7827 -1.1049,0 -1.795462,-0.5678 -1.856846,-1.5499 h 5.248276 v -0.7213 c 0,-2.1331 -1.166284,-3.9439 -3.606271,-3.9439 z m -0.06138,1.7034 c 0.905405,0 1.411817,0.6599 1.442509,1.5346 h -3.007784 c 0.04604,-0.8901 0.644525,-1.5346 1.565275,-1.5346 z" />
      </g>
      <path
         sodipodi:nodetypes="czscssc"
         inkscape:connector-curvature="0"
         id="path9358-7-5-8-2-7-6-4"
         d="m 41.76657,255.1353 c 0,0 -3.21319,23.8586 -3.91621,26.606 -0.70303,2.7475 -2.73384,5.8468 -8.26408,6.0869 -4.14002,0.1797 -18.2356,0 -18.2356,0 0,0 12.63964,-0.5095 18.62687,-2.8166 2.07972,-0.8014 3.99696,-1.8976 4.92555,-4.5218 1.24166,-3.5091 6.86347,-25.3545 6.86347,-25.3545 z"
         style="fill:none;fill-opacity:1;fill-rule:evenodd;stroke:#6aba9c;stroke-width:0.35277781;stroke-linecap:butt;stroke-linejoin:miter;stroke-miterlimit:4;stroke-dasharray:none;stroke-opacity:1" />
      <g
         style="fill:none;fill-opacity:1;stroke:#6aba9c;stroke-width:1.15594874;stroke-miterlimit:4;stroke-dasharray:none;stroke-opacity:1"
         transform="matrix(0.30518463,0,0,0.30518463,-277.26636,62.7545)"
         id="g9395-5-5-7-1-7-4">
        <path
           id="path4001-6-6-8-01-0-6-5-9-4-1-1-2-3"
           d="m 986.09504,667.51283 14.97736,0.0303 c 1.6405,0 3.6456,1.2152 3.6456,3.03802 0,2.8861 -1.4278,9.32669 -2.0658,11.90899 -0.638,2.5823 -2.4304,9.4786 -2.4912,11.78747 h -22.78503 c -2.58232,0 -2.79501,-1.09369 -2.73423,-3.34179 0,-2.157 2.58229,-3.94942 4.86083,-3.94942 l 15.70649,-0.0303 2.52153,-12.12168 h -20.35462 c -6.86591,0 -11.75711,1.82281 -14.18753,6.47099 -1.61013,3.09876 -4.34433,12.15202 -4.34433,16.61791 0,8.56719 6.44057,8.81019 14.88623,8.81019 h 38.58266 l 3.1595,-15.97992 3.2507,-15.28118 c 0.8811,-4.25322 2.9469,-9.75201 1.6405,-15.64574 -0.8202,-3.70637 -8.5671,-4.73929 -13.7925,-4.73929 l -17.8331,0.0303 z"
           class="st1"
           inkscape:connector-curvature="0"
           style="clip-rule:evenodd;display:inline;fill:none;fill-opacity:1;fill-rule:evenodd;stroke:#6aba9c;stroke-width:1.15594874;stroke-miterlimit:4;stroke-dasharray:none;stroke-opacity:1" />
        <path
           id="path4003-2-0-6-3-1-4-2-5-4-54-4-7-7"
           d="m 930.92479,706.73352 h 14.85587 c 0.36456,-2.46077 0.82026,-4.86082 1.33672,-7.3216 0.48609,-2.36962 4.4355,-21.2053 5.25574,-22.8762 4.01019,-8.02033 7.86847,-8.9925 19.5648,-8.9925 l 7.38235,0.0303 2.94688,-12.4862 h -40.34477 z"
           class="st1"
           inkscape:connector-curvature="0"
           style="clip-rule:evenodd;display:inline;fill:none;fill-opacity:1;fill-rule:evenodd;stroke:#6aba9c;stroke-width:1.15594874;stroke-miterlimit:4;stroke-dasharray:none;stroke-opacity:1" />
      </g>
      <path
         sodipodi:nodetypes="czscssc"
         inkscape:connector-curvature="0"
         id="path9358-7-6-5-6-5-5-4-3"
         d="m 0.17481,285.5888 c 0,0 3.21319,-23.8587 3.91621,-26.6061 0.70303,-2.7474 2.73384,-5.8468 8.26408,-6.0868 4.14002,-0.1797 18.2356,0 18.2356,0 0,0 -12.63964,0.5094 -18.62687,2.8166 -2.07972,0.8014 -3.99696,1.8975 -4.92555,4.5218 -1.24166,3.509 -6.86347,25.3545 -6.86347,25.3545 z"
         style="fill:none;fill-opacity:1;fill-rule:evenodd;stroke:#6aba9c;stroke-width:0.35277781;stroke-linecap:butt;stroke-linejoin:miter;stroke-miterlimit:4;stroke-dasharray:none;stroke-opacity:1" />
      <g
         transform="translate(180.08059,-1018.1058)"
         id="g1853">
        <g
           aria-label="POLITECHNIKA WARSZAWSKA"
           style="font-style:normal;font-variant:normal;font-weight:normal;font-stretch:normal;font-size:5.32694435px;line-height:125%;font-family:Adagio_Slab;-inkscape-font-specification:'Adagio_Slab, Normal';font-variant-ligatures:normal;font-variant-caps:normal;font-variant-numeric:normal;font-feature-settings:normal;text-align:start;letter-spacing:0px;word-spacing:0px;writing-mode:lr-tb;text-anchor:start;fill:#6aba9c;fill-opacity:1;stroke:none;stroke-width:0.26458332px;stroke-linecap:butt;stroke-linejoin:miter;stroke-opacity:1"
           id="text1783">
          <path
             inkscape:connector-curvature="0"
             d="m -126.51003,1313.5339 c 0.70316,0 1.21455,-0.3462 1.21455,-1.0387 0,-0.7191 -0.51139,-1.0654 -1.21455,-1.0654 -0.37821,0 -0.69783,0.053 -1.02277,0.053 h -0.39952 c -0.016,0.1012 -0.016,0.2077 0,0.293 l 0.39952,0.053 v 2.8766 l -0.39952,0.053 c -0.016,0.085 -0.016,0.1918 0,0.293 h 1.41164 c 0.016,-0.1012 0.016,-0.2077 0,-0.293 l -0.55933,-0.053 v -1.1933 c 0.18112,0.016 0.36756,0.021 0.56998,0.021 z m -0.56998,-1.6833 c 0.18112,-0.016 0.36756,-0.021 0.56998,-0.021 0.44214,0 0.73512,0.1865 0.73512,0.6659 0,0.4528 -0.29298,0.6392 -0.73512,0.6392 -0.20242,0 -0.38886,-0.01 -0.56998,-0.021 z"
             style="font-style:normal;font-variant:normal;font-weight:normal;font-stretch:normal;font-size:5.32694435px;font-family:Adagio_Slab;-inkscape-font-specification:'Adagio_Slab, Normal';font-variant-ligatures:normal;font-variant-caps:normal;font-variant-numeric:normal;font-feature-settings:normal;text-align:start;writing-mode:lr-tb;text-anchor:start;fill:#6aba9c;fill-opacity:1;stroke-width:0.26458332px"
             id="path1785" />
          <path
             inkscape:connector-curvature="0"
             d="m -123.0347,1311.4298 c -0.84165,0 -1.73125,0.4581 -1.73125,1.8378 0,1.3797 0.8896,1.8378 1.73125,1.8378 0.84166,0 1.73126,-0.4581 1.73126,-1.8378 0,-1.3797 -0.8896,-1.8378 -1.73126,-1.8378 z m 0,3.2761 c -0.65521,0 -1.25183,-0.4262 -1.25183,-1.4383 0,-1.0121 0.59662,-1.4383 1.25183,-1.4383 0.65522,0 1.25184,0.4262 1.25184,1.4383 0,1.0121 -0.59662,1.4383 -1.25184,1.4383 z"
             style="font-style:normal;font-variant:normal;font-weight:normal;font-stretch:normal;font-size:5.32694435px;font-family:Adagio_Slab;-inkscape-font-specification:'Adagio_Slab, Normal';font-variant-ligatures:normal;font-variant-caps:normal;font-variant-numeric:normal;font-feature-settings:normal;text-align:start;writing-mode:lr-tb;text-anchor:start;fill:#6aba9c;fill-opacity:1;stroke-width:0.26458332px"
             id="path1787" />
          <path
             inkscape:connector-curvature="0"
             d="m -118.63181,1314.1892 -0.0426,0.4634 h -1.26249 v -2.8233 l 0.39952,-0.053 c 0.016,-0.085 0.016,-0.1918 0,-0.293 h -1.25183 c -0.016,0.1012 -0.016,0.2077 0,0.293 l 0.39952,0.053 v 2.8766 l -0.39952,0.053 c -0.016,0.085 -0.016,0.1918 0,0.293 h 2.50366 v -0.8629 c -0.0906,-0.016 -0.25569,-0.016 -0.34625,0 z"
             style="font-style:normal;font-variant:normal;font-weight:normal;font-stretch:normal;font-size:5.32694435px;font-family:Adagio_Slab;-inkscape-font-specification:'Adagio_Slab, Normal';font-variant-ligatures:normal;font-variant-caps:normal;font-variant-numeric:normal;font-feature-settings:normal;text-align:start;writing-mode:lr-tb;text-anchor:start;fill:#6aba9c;fill-opacity:1;stroke-width:0.26458332px"
             id="path1789" />
          <path
             inkscape:connector-curvature="0"
             d="m -117.08034,1314.7059 v -2.8766 l 0.39952,-0.053 c 0.016,-0.085 0.016,-0.1918 0,-0.293 h -1.25183 c -0.016,0.1012 -0.016,0.2077 0,0.293 l 0.39952,0.053 v 2.8766 l -0.39952,0.053 c -0.016,0.085 -0.016,0.1918 0,0.293 h 1.25183 c 0.016,-0.1012 0.016,-0.2077 0,-0.293 z"
             style="font-style:normal;font-variant:normal;font-weight:normal;font-stretch:normal;font-size:5.32694435px;font-family:Adagio_Slab;-inkscape-font-specification:'Adagio_Slab, Normal';font-variant-ligatures:normal;font-variant-caps:normal;font-variant-numeric:normal;font-feature-settings:normal;text-align:start;writing-mode:lr-tb;text-anchor:start;fill:#6aba9c;fill-opacity:1;stroke-width:0.26458332px"
             id="path1791" />
          <path
             inkscape:connector-curvature="0"
             d="m -113.50404,1311.4831 h -2.84992 v 0.8629 c 0.0906,0.016 0.2557,0.016 0.34625,0 l 0.0426,-0.4634 h 0.80969 v 2.8233 l -0.39419,0.053 c -0.016,0.085 -0.016,0.1918 0,0.293 h 1.25183 c 0.016,-0.1012 0.016,-0.2077 0,-0.293 l -0.39952,-0.053 h -0.005 v -2.8233 h 0.8097 l 0.0426,0.4634 c 0.0906,0.016 0.25569,0.016 0.34625,0 z"
             style="font-style:normal;font-variant:normal;font-weight:normal;font-stretch:normal;font-size:5.32694435px;font-family:Adagio_Slab;-inkscape-font-specification:'Adagio_Slab, Normal';font-variant-ligatures:normal;font-variant-caps:normal;font-variant-numeric:normal;font-feature-settings:normal;text-align:start;writing-mode:lr-tb;text-anchor:start;fill:#6aba9c;fill-opacity:1;stroke-width:0.26458332px"
             id="path1793" />
          <path
             inkscape:connector-curvature="0"
             d="m -110.99389,1314.1892 -0.0426,0.4634 h -1.31576 v -1.2572 l 1.25183,0.032 v -0.3995 l -1.25183,0.032 v -1.1772 h 1.20922 l 0.0426,0.4634 c 0.0906,0.016 0.2557,0.016 0.34626,0 v -0.8629 h -2.4504 c -0.016,0.1012 -0.016,0.2077 0,0.293 l 0.39952,0.053 v 2.8766 l -0.39952,0.053 c -0.016,0.085 -0.016,0.1918 0,0.293 h 2.55693 v -0.8629 c -0.0906,-0.016 -0.25569,-0.016 -0.34625,0 z"
             style="font-style:normal;font-variant:normal;font-weight:normal;font-stretch:normal;font-size:5.32694435px;font-family:Adagio_Slab;-inkscape-font-specification:'Adagio_Slab, Normal';font-variant-ligatures:normal;font-variant-caps:normal;font-variant-numeric:normal;font-feature-settings:normal;text-align:start;writing-mode:lr-tb;text-anchor:start;fill:#6aba9c;fill-opacity:1;stroke-width:0.26458332px"
             id="path1795" />
          <path
             inkscape:connector-curvature="0"
             d="m -108.3856,1311.4298 c -0.84166,0 -1.73126,0.4581 -1.73126,1.8378 0,1.3797 0.8896,1.8378 1.73126,1.8378 0.43681,0 0.79904,-0.1065 1.04941,-0.2344 v -0.4581 c -0.23971,0.1545 -0.64456,0.293 -1.04941,0.293 -0.65521,0 -1.25183,-0.4262 -1.25183,-1.4383 0,-1.0121 0.54335,-1.4383 1.25183,-1.4383 0.22373,0 0.45279,0.043 0.64989,0.1066 l 0.0533,0.538 c 0.0906,0.016 0.25569,0.016 0.34625,0 v -0.8097 c -0.25037,-0.1279 -0.6126,-0.2344 -1.04941,-0.2344 z"
             style="font-style:normal;font-variant:normal;font-weight:normal;font-stretch:normal;font-size:5.32694435px;font-family:Adagio_Slab;-inkscape-font-specification:'Adagio_Slab, Normal';font-variant-ligatures:normal;font-variant-caps:normal;font-variant-numeric:normal;font-feature-settings:normal;text-align:start;writing-mode:lr-tb;text-anchor:start;fill:#6aba9c;fill-opacity:1;stroke-width:0.26458332px"
             id="path1797" />
          <path
             inkscape:connector-curvature="0"
             d="m -103.48706,1314.7059 v -2.8766 l 0.39952,-0.053 c 0.016,-0.085 0.016,-0.1918 0,-0.293 h -1.25183 c -0.016,0.1012 -0.016,0.2077 0,0.293 l 0.39952,0.053 v 1.1986 h -2.02424 v -1.1986 l 0.39952,-0.053 c 0.016,-0.085 0.016,-0.1918 0,-0.293 h -1.25183 c -0.016,0.1012 -0.016,0.2077 0,0.293 l 0.39952,0.053 v 2.8766 l -0.39952,0.053 c -0.016,0.085 -0.016,0.1918 0,0.293 h 1.25183 c 0.016,-0.1012 0.016,-0.2077 0,-0.293 l -0.39952,-0.053 v -1.2785 h 2.02424 v 1.2785 l -0.39952,0.053 c -0.016,0.085 -0.016,0.1918 0,0.293 h 1.25183 c 0.016,-0.1012 0.016,-0.2077 0,-0.293 z"
             style="font-style:normal;font-variant:normal;font-weight:normal;font-stretch:normal;font-size:5.32694435px;font-family:Adagio_Slab;-inkscape-font-specification:'Adagio_Slab, Normal';font-variant-ligatures:normal;font-variant-caps:normal;font-variant-numeric:normal;font-feature-settings:normal;text-align:start;writing-mode:lr-tb;text-anchor:start;fill:#6aba9c;fill-opacity:1;stroke-width:0.26458332px"
             id="path1799" />
          <path
             inkscape:connector-curvature="0"
             d="m -98.855611,1311.4831 h -1.251829 c -0.016,0.1012 -0.016,0.2077 0,0.293 l 0.399518,0.053 v 2.8499 h -0.01065 l -0.06392,-0.2663 -1.752558,-2.9298 h -1.04941 c -0.016,0.1012 -0.016,0.2077 0,0.293 l 0.39952,0.053 v 2.8766 l -0.39952,0.053 c -0.016,0.085 -0.016,0.1918 0,0.293 h 1.25183 c 0.016,-0.1012 0.016,-0.2077 0,-0.293 l -0.39952,-0.053 v -2.802 h 0.0106 l 0.0586,0.2131 1.757888,2.9351 h 0.649887 v -3.2228 l 0.399521,-0.053 c 0.01598,-0.085 0.01598,-0.1918 0,-0.293 z"
             style="font-style:normal;font-variant:normal;font-weight:normal;font-stretch:normal;font-size:5.32694435px;font-family:Adagio_Slab;-inkscape-font-specification:'Adagio_Slab, Normal';font-variant-ligatures:normal;font-variant-caps:normal;font-variant-numeric:normal;font-feature-settings:normal;text-align:start;writing-mode:lr-tb;text-anchor:start;fill:#6aba9c;fill-opacity:1;stroke-width:0.26458332px"
             id="path1801" />
          <path
             inkscape:connector-curvature="0"
             d="m -97.634908,1314.7059 v -2.8766 l 0.399521,-0.053 c 0.01598,-0.085 0.01598,-0.1918 0,-0.293 h -1.251832 c -0.01598,0.1012 -0.01598,0.2077 0,0.293 l 0.399521,0.053 v 2.8766 l -0.399521,0.053 c -0.01598,0.085 -0.01598,0.1918 0,0.293 h 1.251832 c 0.01598,-0.1012 0.01598,-0.2077 0,-0.293 z"
             style="font-style:normal;font-variant:normal;font-weight:normal;font-stretch:normal;font-size:5.32694435px;font-family:Adagio_Slab;-inkscape-font-specification:'Adagio_Slab, Normal';font-variant-ligatures:normal;font-variant-caps:normal;font-variant-numeric:normal;font-feature-settings:normal;text-align:start;writing-mode:lr-tb;text-anchor:start;fill:#6aba9c;fill-opacity:1;stroke-width:0.26458332px"
             id="path1803" />
          <path
             inkscape:connector-curvature="0"
             d="m -95.96566,1314.7059 v -2.8766 l 0.399521,-0.053 c 0.01598,-0.085 0.01598,-0.1918 0,-0.293 h -1.251832 c -0.01598,0.1012 -0.01598,0.2077 0,0.293 l 0.399521,0.053 v 2.8766 l -0.399521,0.053 c -0.01598,0.085 -0.01598,0.1918 0,0.293 h 1.251832 c 0.01598,-0.1012 0.01598,-0.2077 0,-0.293 z m 2.37049,0.053 -0.399521,-0.048 -1.241178,-1.5129 -0.106539,-0.027 v -0.011 l 0.106539,-0.027 1.155947,-1.3051 0.399521,-0.053 c 0.01598,-0.085 0.01598,-0.1918 0,-0.293 h -1.225197 c -0.01598,0.1012 -0.01598,0.2077 0,0.293 l 0.324944,0.043 -1.225198,1.3477 1.507526,1.8857 h 0.703156 c 0.01598,-0.1012 0.01598,-0.2077 0,-0.293 z"
             style="font-style:normal;font-variant:normal;font-weight:normal;font-stretch:normal;font-size:5.32694435px;font-family:Adagio_Slab;-inkscape-font-specification:'Adagio_Slab, Normal';font-variant-ligatures:normal;font-variant-caps:normal;font-variant-numeric:normal;font-feature-settings:normal;text-align:start;writing-mode:lr-tb;text-anchor:start;fill:#6aba9c;fill-opacity:1;stroke-width:0.26458332px"
             id="path1805" />
          <path
             inkscape:connector-curvature="0"
             d="m -89.772173,1314.7591 -0.372886,-0.048 -1.278467,-3.2281 h -0.90558 c -0.01598,0.1012 -0.01598,0.2077 0,0.293 l 0.319616,0.037 -1.177254,2.8926 -0.388867,0.053 c -0.01598,0.085 -0.01598,0.1918 0,0.293 h 1.251832 c 0.01598,-0.1012 0.01598,-0.2077 0,-0.293 l -0.388867,-0.053 0.324943,-0.8257 h 1.422295 l 0.319616,0.831 -0.378213,0.048 c -0.01598,0.085 -0.01598,0.1918 0,0.293 h 1.251832 c 0.01598,-0.1012 0.01598,-0.2077 0,-0.293 z m -2.461048,-1.2784 0.538021,-1.385 0.02131,-0.2131 h 0.01065 l 0.02131,0.2131 0.527367,1.385 z"
             style="font-style:normal;font-variant:normal;font-weight:normal;font-stretch:normal;font-size:5.32694435px;font-family:Adagio_Slab;-inkscape-font-specification:'Adagio_Slab, Normal';font-variant-ligatures:normal;font-variant-caps:normal;font-variant-numeric:normal;font-feature-settings:normal;text-align:start;writing-mode:lr-tb;text-anchor:start;fill:#6aba9c;fill-opacity:1;stroke-width:0.26458332px"
             id="path1807" />
          <path
             inkscape:connector-curvature="0"
             d="m -83.134134,1311.4831 h -1.241178 c -0.01598,0.1012 -0.01598,0.2077 0,0.293 l 0.378213,0.048 -0.735119,2.6155 -0.02131,0.2131 h -0.01065 l -0.02131,-0.2131 -0.724465,-2.9032 h -0.569983 l -0.740445,2.9032 -0.02131,0.2131 h -0.01065 l -0.02131,-0.2131 -0.735119,-2.6102 0.388867,-0.053 c 0.01598,-0.085 0.01598,-0.1918 0,-0.293 h -1.251832 c -0.01598,0.1012 -0.01598,0.2077 0,0.293 l 0.38354,0.053 0.969504,3.2228 h 0.538022 l 0.751099,-2.9032 0.02131,-0.213 h 0.01065 l 0.02131,0.213 0.751099,2.9032 h 0.538022 l 0.969504,-3.2228 0.38354,-0.053 c 0.01598,-0.085 0.01598,-0.1918 0,-0.293 z"
             style="font-style:normal;font-variant:normal;font-weight:normal;font-stretch:normal;font-size:5.32694435px;font-family:Adagio_Slab;-inkscape-font-specification:'Adagio_Slab, Normal';font-variant-ligatures:normal;font-variant-caps:normal;font-variant-numeric:normal;font-feature-settings:normal;text-align:start;writing-mode:lr-tb;text-anchor:start;fill:#6aba9c;fill-opacity:1;stroke-width:0.26458332px"
             id="path1809" />
          <path
             inkscape:connector-curvature="0"
             d="m -79.607283,1314.7591 -0.372886,-0.048 -1.278466,-3.2281 h -0.905581 c -0.01598,0.1012 -0.01598,0.2077 0,0.293 l 0.319617,0.037 -1.177255,2.8926 -0.388867,0.053 c -0.01598,0.085 -0.01598,0.1918 0,0.293 h 1.251832 c 0.01598,-0.1012 0.01598,-0.2077 0,-0.293 l -0.388867,-0.053 0.324944,-0.8257 h 1.422294 l 0.319617,0.831 -0.378214,0.048 c -0.01598,0.085 -0.01598,0.1918 0,0.293 h 1.251832 c 0.01598,-0.1012 0.01598,-0.2077 0,-0.293 z m -2.461048,-1.2784 0.538021,-1.385 0.02131,-0.2131 h 0.01065 l 0.02131,0.2131 0.527367,1.385 z"
             style="font-style:normal;font-variant:normal;font-weight:normal;font-stretch:normal;font-size:5.32694435px;font-family:Adagio_Slab;-inkscape-font-specification:'Adagio_Slab, Normal';font-variant-ligatures:normal;font-variant-caps:normal;font-variant-numeric:normal;font-feature-settings:normal;text-align:start;writing-mode:lr-tb;text-anchor:start;fill:#6aba9c;fill-opacity:1;stroke-width:0.26458332px"
             id="path1811" />
          <path
             inkscape:connector-curvature="0"
             d="m -76.312482,1314.7591 -0.399521,-0.053 -0.878946,-1.2412 c 0.458117,-0.1172 0.777734,-0.4421 0.777734,-0.9695 0,-0.7191 -0.511387,-1.0654 -1.161274,-1.0654 -0.378213,0 -0.69783,0.053 -1.022773,0.053 h -0.399521 c -0.01598,0.1012 -0.01598,0.2077 0,0.293 l 0.399521,0.053 v 2.8766 l -0.399521,0.053 c -0.01598,0.085 -0.01598,0.1918 0,0.293 h 1.251832 c 0.01598,-0.1012 0.01598,-0.2077 0,-0.293 l -0.399521,-0.053 v -1.2199 c 0.143827,0.011 0.298309,0.016 0.458117,0.021 l 1.070716,1.5448 h 0.703157 c 0.01598,-0.1012 0.01598,-0.2077 0,-0.293 z m -2.23199,-2.9085 c 0.181116,-0.016 0.367559,-0.021 0.569983,-0.021 0.388867,0 0.681849,0.1865 0.681849,0.6659 0,0.4261 -0.292982,0.6126 -0.681849,0.6126 -0.202424,0 -0.388867,-0.01 -0.569983,-0.021 z"
             style="font-style:normal;font-variant:normal;font-weight:normal;font-stretch:normal;font-size:5.32694435px;font-family:Adagio_Slab;-inkscape-font-specification:'Adagio_Slab, Normal';font-variant-ligatures:normal;font-variant-caps:normal;font-variant-numeric:normal;font-feature-settings:normal;text-align:start;writing-mode:lr-tb;text-anchor:start;fill:#6aba9c;fill-opacity:1;stroke-width:0.26458332px"
             id="path1813" />
          <path
             inkscape:connector-curvature="0"
             d="m -75.475903,1312.362 c 0,-0.3729 0.197097,-0.5327 0.617925,-0.5327 0.17579,0 0.340925,0.037 0.490079,0.091 l 0.05327,0.554 c 0.09056,0.016 0.255693,0.016 0.346251,0 v -0.8097 c -0.250366,-0.1279 -0.50606,-0.2344 -0.8896,-0.2344 -0.697829,0 -1.070715,0.3782 -1.070715,0.9322 0,1.1986 1.683314,0.8949 1.683314,1.7526 0,0.4315 -0.330271,0.5913 -0.729791,0.5913 -0.186443,0 -0.372886,-0.037 -0.543349,-0.1012 l -0.05327,-0.5434 c -0.09056,-0.016 -0.255693,-0.016 -0.346252,0 v 0.8097 c 0.250367,0.1279 0.55933,0.2344 0.94287,0.2344 0.76708,0 1.187908,-0.3676 1.187908,-0.9908 0,-1.1879 -1.688641,-0.9376 -1.688641,-1.7526 z"
             style="font-style:normal;font-variant:normal;font-weight:normal;font-stretch:normal;font-size:5.32694435px;font-family:Adagio_Slab;-inkscape-font-specification:'Adagio_Slab, Normal';font-variant-ligatures:normal;font-variant-caps:normal;font-variant-numeric:normal;font-feature-settings:normal;text-align:start;writing-mode:lr-tb;text-anchor:start;fill:#6aba9c;fill-opacity:1;stroke-width:0.26458332px"
             id="path1815" />
          <path
             inkscape:connector-curvature="0"
             d="m -71.041304,1314.1892 -0.04261,0.4634 h -1.646026 v -0.011 l 0.106539,-0.043 1.901719,-2.8499 v -0.2663 h -2.482356 v 0.8629 c 0.09056,0.016 0.255693,0.016 0.346251,0 l 0.04262,-0.4634 h 1.576775 v 0.011 l -0.106539,0.043 -1.912373,2.8499 v 0.2663 h 2.562261 v -0.8629 c -0.09056,-0.016 -0.255694,-0.016 -0.346252,0 z"
             style="font-style:normal;font-variant:normal;font-weight:normal;font-stretch:normal;font-size:5.32694435px;font-family:Adagio_Slab;-inkscape-font-specification:'Adagio_Slab, Normal';font-variant-ligatures:normal;font-variant-caps:normal;font-variant-numeric:normal;font-feature-settings:normal;text-align:start;writing-mode:lr-tb;text-anchor:start;fill:#6aba9c;fill-opacity:1;stroke-width:0.26458332px"
             id="path1817" />
          <path
             inkscape:connector-curvature="0"
             d="m -66.643663,1314.7591 -0.372886,-0.048 -1.278467,-3.2281 h -0.905581 c -0.01598,0.1012 -0.01598,0.2077 0,0.293 l 0.319617,0.037 -1.177255,2.8926 -0.388867,0.053 c -0.01598,0.085 -0.01598,0.1918 0,0.293 h 1.251832 c 0.01598,-0.1012 0.01598,-0.2077 0,-0.293 l -0.388867,-0.053 0.324944,-0.8257 h 1.422294 l 0.319617,0.831 -0.378213,0.048 c -0.01598,0.085 -0.01598,0.1918 0,0.293 h 1.251832 c 0.01598,-0.1012 0.01598,-0.2077 0,-0.293 z m -2.461049,-1.2784 0.538022,-1.385 0.02131,-0.2131 h 0.01065 l 0.02131,0.2131 0.527368,1.385 z"
             style="font-style:normal;font-variant:normal;font-weight:normal;font-stretch:normal;font-size:5.32694435px;font-family:Adagio_Slab;-inkscape-font-specification:'Adagio_Slab, Normal';font-variant-ligatures:normal;font-variant-caps:normal;font-variant-numeric:normal;font-feature-settings:normal;text-align:start;writing-mode:lr-tb;text-anchor:start;fill:#6aba9c;fill-opacity:1;stroke-width:0.26458332px"
             id="path1819" />
          <path
             inkscape:connector-curvature="0"
             d="m -61.680697,1311.4831 h -1.241178 c -0.01598,0.1012 -0.01598,0.2077 0,0.293 l 0.378213,0.048 -0.735118,2.6155 -0.02131,0.2131 h -0.01065 l -0.02131,-0.2131 -0.724465,-2.9032 h -0.569983 l -0.740445,2.9032 -0.02131,0.2131 h -0.01065 l -0.02131,-0.2131 -0.735118,-2.6102 0.388867,-0.053 c 0.01598,-0.085 0.01598,-0.1918 0,-0.293 h -1.251832 c -0.01598,0.1012 -0.01598,0.2077 0,0.293 l 0.38354,0.053 0.969504,3.2228 h 0.538021 l 0.7511,-2.9032 0.02131,-0.213 h 0.01065 l 0.02131,0.213 0.751099,2.9032 h 0.538022 l 0.969503,-3.2228 0.38354,-0.053 c 0.01598,-0.085 0.01598,-0.1918 0,-0.293 z"
             style="font-style:normal;font-variant:normal;font-weight:normal;font-stretch:normal;font-size:5.32694435px;font-family:Adagio_Slab;-inkscape-font-specification:'Adagio_Slab, Normal';font-variant-ligatures:normal;font-variant-caps:normal;font-variant-numeric:normal;font-feature-settings:normal;text-align:start;writing-mode:lr-tb;text-anchor:start;fill:#6aba9c;fill-opacity:1;stroke-width:0.26458332px"
             id="path1821" />
          <path
             inkscape:connector-curvature="0"
             d="m -60.847611,1312.362 c 0,-0.3729 0.197097,-0.5327 0.617925,-0.5327 0.17579,0 0.340925,0.037 0.490079,0.091 l 0.05327,0.554 c 0.09056,0.016 0.255693,0.016 0.346251,0 v -0.8097 c -0.250366,-0.1279 -0.50606,-0.2344 -0.8896,-0.2344 -0.697829,0 -1.070715,0.3782 -1.070715,0.9322 0,1.1986 1.683314,0.8949 1.683314,1.7526 0,0.4315 -0.33027,0.5913 -0.729791,0.5913 -0.186443,0 -0.372886,-0.037 -0.543349,-0.1012 l -0.05327,-0.5434 c -0.09056,-0.016 -0.255693,-0.016 -0.346251,0 v 0.8097 c 0.250366,0.1279 0.559329,0.2344 0.942869,0.2344 0.76708,0 1.187908,-0.3676 1.187908,-0.9908 0,-1.1879 -1.688641,-0.9376 -1.688641,-1.7526 z"
             style="font-style:normal;font-variant:normal;font-weight:normal;font-stretch:normal;font-size:5.32694435px;font-family:Adagio_Slab;-inkscape-font-specification:'Adagio_Slab, Normal';font-variant-ligatures:normal;font-variant-caps:normal;font-variant-numeric:normal;font-feature-settings:normal;text-align:start;writing-mode:lr-tb;text-anchor:start;fill:#6aba9c;fill-opacity:1;stroke-width:0.26458332px"
             id="path1823" />
          <path
             inkscape:connector-curvature="0"
             d="m -57.792694,1314.7059 v -2.8766 l 0.399521,-0.053 c 0.01598,-0.085 0.01598,-0.1918 0,-0.293 h -1.251832 c -0.01598,0.1012 -0.01598,0.2077 0,0.293 l 0.399521,0.053 v 2.8766 l -0.399521,0.053 c -0.01598,0.085 -0.01598,0.1918 0,0.293 h 1.251832 c 0.01598,-0.1012 0.01598,-0.2077 0,-0.293 z m 2.37049,0.053 -0.399521,-0.048 -1.241178,-1.5129 -0.106539,-0.027 v -0.011 l 0.106539,-0.027 1.155947,-1.3051 0.399521,-0.053 c 0.01598,-0.085 0.01598,-0.1918 0,-0.293 h -1.225197 c -0.01598,0.1012 -0.01598,0.2077 0,0.293 l 0.324944,0.043 -1.225198,1.3477 1.507526,1.8857 h 0.703156 c 0.01598,-0.1012 0.01598,-0.2077 0,-0.293 z"
             style="font-style:normal;font-variant:normal;font-weight:normal;font-stretch:normal;font-size:5.32694435px;font-family:Adagio_Slab;-inkscape-font-specification:'Adagio_Slab, Normal';font-variant-ligatures:normal;font-variant-caps:normal;font-variant-numeric:normal;font-feature-settings:normal;text-align:start;writing-mode:lr-tb;text-anchor:start;fill:#6aba9c;fill-opacity:1;stroke-width:0.26458332px"
             id="path1825" />
          <path
             inkscape:connector-curvature="0"
             d="m -51.599207,1314.7591 -0.372886,-0.048 -1.278467,-3.2281 h -0.90558 c -0.01598,0.1012 -0.01598,0.2077 0,0.293 l 0.319616,0.037 -1.177254,2.8926 -0.388867,0.053 c -0.01598,0.085 -0.01598,0.1918 0,0.293 h 1.251832 c 0.01598,-0.1012 0.01598,-0.2077 0,-0.293 l -0.388867,-0.053 0.324943,-0.8257 h 1.422295 l 0.319616,0.831 -0.378213,0.048 c -0.01598,0.085 -0.01598,0.1918 0,0.293 h 1.251832 c 0.01598,-0.1012 0.01598,-0.2077 0,-0.293 z m -2.461048,-1.2784 0.538021,-1.385 0.02131,-0.2131 h 0.01065 l 0.02131,0.2131 0.527367,1.385 z"
             style="font-style:normal;font-variant:normal;font-weight:normal;font-stretch:normal;font-size:5.32694435px;font-family:Adagio_Slab;-inkscape-font-specification:'Adagio_Slab, Normal';font-variant-ligatures:normal;font-variant-caps:normal;font-variant-numeric:normal;font-feature-settings:normal;text-align:start;writing-mode:lr-tb;text-anchor:start;fill:#6aba9c;fill-opacity:1;stroke-width:0.26458332px"
             id="path1827" />
        </g>
      </g>
    </g>
  </g>
</svg>
