<?xml version="1.0" encoding="UTF-8" standalone="no"?>
<svg
   xmlns:dc="http://purl.org/dc/elements/1.1/"
   xmlns:cc="http://creativecommons.org/ns#"
   xmlns:rdf="http://www.w3.org/1999/02/22-rdf-syntax-ns#"
   xmlns:svg="http://www.w3.org/2000/svg"
   xmlns="http://www.w3.org/2000/svg"
   id="svg1712"
   version="1.1"
   viewBox="0 0 138.52295 44.640705"
   height="44.640705mm"
   width="138.52295mm">
  <defs
     id="defs1706" />
  <metadata
     id="metadata1709">
    <rdf:RDF>
      <cc:Work
         rdf:about="">
        <dc:format>image/svg+xml</dc:format>
        <dc:type
           rdf:resource="http://purl.org/dc/dcmitype/StillImage" />
        <dc:title></dc:title>
      </cc:Work>
    </rdf:RDF>
  </metadata>
  <g
     transform="translate(0,-252.3593)"
     id="layer1">
    <g
       id="text20-7-2-8-5-5-7"
       style="font-style:normal;font-variant:normal;font-weight:bold;font-stretch:normal;font-size:19.88643837px;line-height:125%;font-family:'Radikal WUT';-inkscape-font-specification:'Radikal WUT, Bold';font-variant-ligatures:normal;font-variant-caps:normal;font-variant-numeric:normal;font-feature-settings:normal;text-align:start;letter-spacing:0px;word-spacing:0px;writing-mode:lr-tb;text-anchor:start;display:inline;fill:#6aba9c;fill-opacity:1;stroke:none;stroke-width:0.49716496px;stroke-linecap:butt;stroke-linejoin:miter;stroke-opacity:1"
       aria-label="Radio
Aktywne">
      <path
         id="path6327"
         style="font-style:normal;font-variant:normal;font-weight:bold;font-stretch:normal;font-size:19.88643837px;font-family:'Radikal WUT';-inkscape-font-specification:'Radikal WUT, Bold';font-variant-ligatures:normal;font-variant-caps:normal;font-variant-numeric:normal;font-feature-settings:normal;text-align:start;writing-mode:lr-tb;text-anchor:start;fill:#6aba9c;fill-opacity:1;stroke-width:0.49716496px"
         d="m 57.233719,267.56808 h 3.042625 v -14.61653 h -3.042625 z m 8.571055,-5.78695 c 1.411937,-0.77557 2.366486,-2.16762 2.366486,-4.09661 0,-3.02273 -2.386373,-4.73297 -5.190361,-4.73297 h -0.21875 v 2.62501 h 0.05966 c 1.292618,0 2.267054,0.75569 2.267054,2.10796 0,1.37217 -0.934663,2.10797 -2.286941,2.10797 h -0.03977 v 2.66478 l 2.605123,5.11081 h 3.500013 z" />
      <path
         id="path6329"
         style="font-style:normal;font-variant:normal;font-weight:bold;font-stretch:normal;font-size:19.88643837px;font-family:'Radikal WUT';-inkscape-font-specification:'Radikal WUT, Bold';font-variant-ligatures:normal;font-variant-caps:normal;font-variant-numeric:normal;font-feature-settings:normal;text-align:start;writing-mode:lr-tb;text-anchor:start;fill:#6aba9c;fill-opacity:1;stroke-width:0.49716496px"
         d="m 74.039002,257.2868 c -2.664782,0 -4.434676,2.22728 -4.434676,5.25002 0,3.02273 1.769894,5.23013 4.434676,5.23013 1.411937,0 2.366486,-0.59659 2.883534,-1.31251 l 0.139205,1.11364 h 2.644896 v -10.08242 h -2.644896 l -0.139205,1.13353 c -0.517048,-0.7358 -1.471597,-1.33239 -2.883534,-1.33239 z m 0.715912,2.56535 c 0.994322,0 1.571029,0.53693 2.00853,1.25284 v 2.84376 c -0.437501,0.71591 -1.014208,1.25285 -2.00853,1.25285 -1.292618,0 -2.167622,-1.01421 -2.167622,-2.66478 0,-1.65058 0.875004,-2.68467 2.167622,-2.68467 z" />
      <path
         id="path6331"
         style="font-style:normal;font-variant:normal;font-weight:bold;font-stretch:normal;font-size:19.88643837px;font-family:'Radikal WUT';-inkscape-font-specification:'Radikal WUT, Bold';font-variant-ligatures:normal;font-variant-caps:normal;font-variant-numeric:normal;font-feature-settings:normal;text-align:start;writing-mode:lr-tb;text-anchor:start;fill:#6aba9c;fill-opacity:1;stroke-width:0.49716496px"
         d="m 91.75005,252.45439 h -2.923306 v 5.94605 c -0.497161,-0.55682 -1.372165,-1.11364 -2.803988,-1.11364 -2.664783,0 -4.494335,2.22728 -4.494335,5.25002 0,3.02273 1.829552,5.23013 4.494335,5.23013 1.45171,0 2.426145,-0.59659 2.943193,-1.31251 l 0.159091,1.11364 h 2.62501 z m -4.991496,7.39776 c 1.014208,0 1.630688,0.53693 2.06819,1.27273 v 2.82387 c -0.437502,0.71591 -1.053982,1.25285 -2.06819,1.25285 -1.332391,0 -2.247168,-1.01421 -2.247168,-2.66478 0,-1.65058 0.914777,-2.68467 2.247168,-2.68467 z" />
      <path
         id="path6333"
         style="font-style:normal;font-variant:normal;font-weight:bold;font-stretch:normal;font-size:19.88643837px;font-family:'Radikal WUT';-inkscape-font-specification:'Radikal WUT, Bold';font-variant-ligatures:normal;font-variant-caps:normal;font-variant-numeric:normal;font-feature-settings:normal;text-align:start;writing-mode:lr-tb;text-anchor:start;fill:#6aba9c;fill-opacity:1;stroke-width:0.49716496px"
         d="m 95.715839,252.57371 c -1.014208,0 -1.73012,0.7358 -1.73012,1.73012 0,0.99432 0.715912,1.73012 1.73012,1.73012 0.994322,0 1.710234,-0.7358 1.710234,-1.73012 0,-0.99432 -0.715912,-1.73012 -1.710234,-1.73012 z m 1.45171,4.91195 h -2.943192 v 10.08242 h 2.943192 z" />
      <path
         id="path6335"
         style="font-style:normal;font-variant:normal;font-weight:bold;font-stretch:normal;font-size:19.88643837px;font-family:'Radikal WUT';-inkscape-font-specification:'Radikal WUT, Bold';font-variant-ligatures:normal;font-variant-caps:normal;font-variant-numeric:normal;font-feature-settings:normal;text-align:start;writing-mode:lr-tb;text-anchor:start;fill:#6aba9c;fill-opacity:1;stroke-width:0.49716496px"
         d="m 104.27758,257.2868 c -3.06252,0 -5.309683,2.24716 -5.309683,5.2699 0,3.02274 2.247163,5.21025 5.309683,5.21025 3.06251,0 5.32956,-2.18751 5.32956,-5.21025 0,-3.02274 -2.26705,-5.2699 -5.32956,-5.2699 z m 0,2.56535 c 1.39205,0 2.36648,1.11364 2.36648,2.70455 0,1.55114 -0.97443,2.6449 -2.36648,2.6449 -1.37217,0 -2.32672,-1.09376 -2.32672,-2.6449 0,-1.59091 0.95455,-2.70455 2.32672,-2.70455 z" />
      <path
         id="path6337"
         style="font-style:normal;font-variant:normal;font-weight:bold;font-stretch:normal;font-size:19.88643837px;font-family:'Radikal WUT';-inkscape-font-specification:'Radikal WUT, Bold';font-variant-ligatures:normal;font-variant-caps:normal;font-variant-numeric:normal;font-feature-settings:normal;text-align:start;writing-mode:lr-tb;text-anchor:start;fill:#6aba9c;fill-opacity:1;stroke-width:0.49716496px"
         d="m 61.568962,280.27552 5.071042,12.15061 h 3.360808 l -7.059685,-14.87505 h -0.07955 z m 1.272732,9.50572 -2.704555,-6.48298 -4.35513,9.12787 h 3.380694 l 1.113641,-2.64489 z" />
      <path
         id="path6339"
         style="font-style:normal;font-variant:normal;font-weight:bold;font-stretch:normal;font-size:19.88643837px;font-family:'Radikal WUT';-inkscape-font-specification:'Radikal WUT, Bold';font-variant-ligatures:normal;font-variant-caps:normal;font-variant-numeric:normal;font-feature-settings:normal;text-align:start;writing-mode:lr-tb;text-anchor:start;fill:#6aba9c;fill-opacity:1;stroke-width:0.49716496px"
         d="m 74.291312,277.31244 h -2.943193 v 15.11369 h 2.326713 l 2.465918,-3.40058 1.968758,3.40058 h 3.340921 l -3.360808,-5.92616 3.062512,-4.15626 h -3.340922 l -3.519899,5.34945 z" />
      <path
         id="path6341"
         style="font-style:normal;font-variant:normal;font-weight:bold;font-stretch:normal;font-size:19.88643837px;font-family:'Radikal WUT';-inkscape-font-specification:'Radikal WUT, Bold';font-variant-ligatures:normal;font-variant-caps:normal;font-variant-numeric:normal;font-feature-settings:normal;text-align:start;writing-mode:lr-tb;text-anchor:start;fill:#6aba9c;fill-opacity:1;stroke-width:0.49716496px"
         d="m 86.466162,279.00279 h -2.943193 v 3.34092 h -1.809666 v 2.4858 h 1.809666 v 3.83809 c 0,2.54546 1.551142,3.9574 4.036947,3.9574 1.034095,0 1.789779,-0.27841 2.306827,-0.61648 l -0.735798,-2.32672 c -0.298297,0.13921 -0.696026,0.31819 -1.312505,0.31819 -0.815344,0 -1.352278,-0.51705 -1.352278,-1.37217 v -3.79831 h 2.883533 v -2.4858 h -2.883533 z" />
      <path
         id="path6343"
         style="font-style:normal;font-variant:normal;font-weight:bold;font-stretch:normal;font-size:19.88643837px;font-family:'Radikal WUT';-inkscape-font-specification:'Radikal WUT, Bold';font-variant-ligatures:normal;font-variant-caps:normal;font-variant-numeric:normal;font-feature-settings:normal;text-align:start;writing-mode:lr-tb;text-anchor:start;fill:#6aba9c;fill-opacity:1;stroke-width:0.49716496px"
         d="m 101.15882,282.34371 h -3.221601 l -2.386372,5.05115 -2.326714,-5.05115 H 90.00253 l 3.997175,7.53696 -4.036947,7.11934 h 3.360808 z" />
      <path
         id="path6345"
         style="font-style:normal;font-variant:normal;font-weight:bold;font-stretch:normal;font-size:19.88643837px;font-family:'Radikal WUT';-inkscape-font-specification:'Radikal WUT, Bold';font-variant-ligatures:normal;font-variant-caps:normal;font-variant-numeric:normal;font-feature-settings:normal;text-align:start;writing-mode:lr-tb;text-anchor:start;fill:#6aba9c;fill-opacity:1;stroke-width:0.49716496px"
         d="m 116.38003,282.34371 h -3.22161 l -1.92898,4.87218 -2.36649,-4.87218 h -0.0795 l -2.38638,4.87218 -1.9091,-4.87218 h -3.2216 l 4.83241,10.28129 h 0.0795 l 2.6449,-4.95173 2.64489,4.95173 h 0.0795 z" />
      <path
         id="path6347"
         style="font-style:normal;font-variant:normal;font-weight:bold;font-stretch:normal;font-size:19.88643837px;font-family:'Radikal WUT';-inkscape-font-specification:'Radikal WUT, Bold';font-variant-ligatures:normal;font-variant-caps:normal;font-variant-numeric:normal;font-feature-settings:normal;text-align:start;writing-mode:lr-tb;text-anchor:start;fill:#6aba9c;fill-opacity:1;stroke-width:0.49716496px"
         d="m 123.27316,282.14484 c -1.37216,0 -2.3466,0.57671 -2.86364,1.31251 l -0.13921,-1.11364 h -2.62501 v 10.08242 h 2.94319 v -6.34377 c 0.37785,-0.59659 0.97444,-1.1733 1.88922,-1.1733 1.0142,0 1.63068,0.75568 1.63068,1.86932 v 5.64775 h 2.9432 v -5.80684 c 0,-2.72444 -1.31251,-4.47445 -3.77843,-4.47445 z" />
      <path
         id="path6349"
         style="font-style:normal;font-variant:normal;font-weight:bold;font-stretch:normal;font-size:19.88643837px;font-family:'Radikal WUT';-inkscape-font-specification:'Radikal WUT, Bold';font-variant-ligatures:normal;font-variant-caps:normal;font-variant-numeric:normal;font-feature-settings:normal;text-align:start;writing-mode:lr-tb;text-anchor:start;fill:#6aba9c;fill-opacity:1;stroke-width:0.49716496px"
         d="m 133.84964,282.14484 c -3.02274,0 -5.09093,2.24717 -5.09093,5.26991 0,3.02274 2.10796,5.21025 5.26991,5.21025 1.88921,0 3.32103,-0.67614 4.31535,-1.94887 l -1.96875,-1.49149 c -0.43751,0.57671 -1.23296,1.01421 -2.24717,1.01421 -1.43183,0 -2.32671,-0.7358 -2.40626,-2.00853 h 6.80116 v -0.93466 c 0,-2.76422 -1.51137,-5.11082 -4.67331,-5.11082 z m -0.0795,2.2074 c 1.1733,0 1.82955,0.85512 1.86933,1.98864 h -3.89774 c 0.0597,-1.15341 0.83523,-1.98864 2.02841,-1.98864 z" />
    </g>
    <g
       style="display:inline;fill:#6aba9c;fill-opacity:1;stroke:none;stroke-opacity:1"
       transform="matrix(0.36260545,0,0,0.36260545,-285.03837,24.04311)"
       id="g9471-7-9-5">
      <path
         style="fill:#6aba9c;fill-opacity:1;fill-rule:evenodd;stroke:none;stroke-width:1.24000001;stroke-linecap:butt;stroke-linejoin:miter;stroke-miterlimit:4;stroke-dasharray:none;stroke-opacity:1"
         d="m 922.36802,637.25416 c 0,0 -10.52868,78.17768 -12.83229,87.18021 -2.30361,9.00254 -8.95797,19.15816 -27.07894,19.94474 -13.56562,0.58884 -59.75268,0 -59.75268,0 0,0 41.41638,-1.6692 61.03475,-9.22912 6.81465,-2.62602 13.09687,-6.2177 16.13958,-14.81666 4.06855,-11.49809 22.48958,-83.07917 22.48958,-83.07917 z"
         id="path9358-7-5-8-5" />
      <g
         id="g9395-5-5-98"
         transform="translate(-121.70833,6.8791667)"
         style="fill:#6aba9c;fill-opacity:1;stroke:none;stroke-width:1.24000001;stroke-miterlimit:4;stroke-dasharray:none;stroke-opacity:1">
        <path
           style="clip-rule:evenodd;display:inline;fill:#6aba9c;fill-opacity:1;fill-rule:evenodd;stroke:none;stroke-width:1.24000001;stroke-miterlimit:4;stroke-dasharray:none;stroke-opacity:1"
           class="st1"
           d="m 986.09504,667.51283 14.97736,0.0303 c 1.6405,0 3.6456,1.2152 3.6456,3.03802 0,2.8861 -1.4278,9.32669 -2.0658,11.90899 -0.638,2.5823 -2.4304,9.4786 -2.4912,11.78747 h -22.78503 c -2.58232,0 -2.79501,-1.09369 -2.73423,-3.34179 0,-2.157 2.58229,-3.94942 4.86083,-3.94942 l 15.70649,-0.0303 2.52153,-12.12168 h -20.35462 c -6.86591,0 -11.75711,1.82281 -14.18753,6.47099 -1.61013,3.09876 -4.34433,12.15202 -4.34433,16.61791 0,8.56719 6.44057,8.81019 14.88623,8.81019 h 38.58266 l 3.1595,-15.97992 3.2507,-15.28118 c 0.8811,-4.25322 2.9469,-9.75201 1.6405,-15.64574 -0.8202,-3.70637 -8.5671,-4.73929 -13.7925,-4.73929 l -17.8331,0.0303 z"
           id="path4001-6-6-8-01-0-6-5-9-4-9" />
        <path
           style="clip-rule:evenodd;display:inline;fill:#6aba9c;fill-opacity:1;fill-rule:evenodd;stroke:none;stroke-width:1.24000001;stroke-miterlimit:4;stroke-dasharray:none;stroke-opacity:1"
           class="st1"
           d="m 930.92479,706.73352 h 14.85587 c 0.36456,-2.46077 0.82026,-4.86082 1.33672,-7.3216 0.48609,-2.36962 4.4355,-21.2053 5.25574,-22.8762 4.01019,-8.02033 7.86847,-8.9925 19.5648,-8.9925 l 7.38235,0.0303 2.94688,-12.4862 h -40.34477 z"
           id="path4003-2-0-6-3-1-4-2-5-4-5" />
      </g>
      <path
         style="fill:#6aba9c;fill-opacity:1;fill-rule:evenodd;stroke:none;stroke-width:1.24000001;stroke-linecap:butt;stroke-linejoin:miter;stroke-miterlimit:4;stroke-dasharray:none;stroke-opacity:1"
         d="m 786.08407,737.04125 c 0,0 10.52868,-78.17768 12.83229,-87.18021 2.30361,-9.00254 8.95797,-19.15816 27.07894,-19.94474 13.56562,-0.58884 59.75268,0 59.75268,0 0,0 -41.41638,1.6692 -61.03475,9.22912 -6.81465,2.62602 -13.09687,6.2177 -16.13958,14.81666 -4.06855,11.49809 -22.48958,83.07917 -22.48958,83.07917 z"
         id="path9358-7-6-5-6-1" />
    </g>
  </g>
</svg>
